# xmcd
# 
# Track frame offsets:
#     150
#     16638
#     32127
#     44424
#     58177
#     73881
#     88609
#     106037
#     120830
#     138916
#     154457
#     176608
#     189767
#     203821
#     216330
#     235237
#     253247
#     271263
#     284739
#     300524
#     322440
# 
# Disc length: 4440
# 
# Revision: 0
# Processed by: cddbd v1.5.2PL0 Copyright (c) Steve Scherf et al.
# Submitted via: fre:ac v1.0.31
# 
DISCID=36115615
DTITLE=Fluke - D9 - Cherry Cheesecake Murder
DYEAR=0
DGENRE=Audiobook
TTITLE0=a
TTITLE1=b
TTITLE2=c
TTITLE3=d
TTITLE4=e
TTITLE5=f
TTITLE6=g
TTITLE7=h
TTITLE8=i
TTITLE9=j
TTITLE10=k
TTITLE11=l
TTITLE12=m
TTITLE13=n
TTITLE14=o
TTITLE15=p
TTITLE16=q
TTITLE17=r
TTITLE18=s
TTITLE19=t
TTITLE20=u
EXTD=
EXTT0=
EXTT1=
EXTT2=
EXTT3=
EXTT4=
EXTT5=
EXTT6=
EXTT7=
EXTT8=
EXTT9=
EXTT10=
EXTT11=
EXTT12=
EXTT13=
EXTT14=
EXTT15=
EXTT16=
EXTT17=
EXTT18=
EXTT19=
EXTT20=
PLAYORDER=
